#!OML:ASF H:\ColoradoDance\Project 1\Capture day 1\Session 8\male.ASF
:FULLY-SPECIFIED
:DEGREES
139
upperback 7.447900 2.772000 5.638090
rfoot 23.175600 -13.110900
lradius 62.213600
lthumb 28.541599 724.997986
rradius 57.384201
lwrist 41.323200
rhand -17.354200 3.952710
rhumerus -292.243011 -3.537880 334.363007
lowerneck -8.541260 5.561660 2.680620
lhand 3.084850 337.157013
ltibia 25.688900
head 4.685300 3.607630 -1.184080
rwrist 316.006989
lfingers 7.125020
rtoes -6.108500
lowerback 7.372550 1.617440 2.573130
rfingers 7.125020
lclavicle -0.000000 -0.000000
upperneck 10.087900 7.643350 -4.095700
rfemur 3.808090 -17.127199 12.982200
thorax 3.445430 1.595010 4.319370
rclavicle -0.000000 -0.000000
rtibia 60.716702
lfoot -103.594002 17.820000
lhumerus 46.964500 375.291992 -347.338013
rthumb 8.893550 -385.839996
root 5.458930 19.696501 -2.101880 -105.512001 34.222900 -142.110992
ltoes 51.373501
lfemur -83.740196 -42.305000 88.272797
140
upperback 6.639160 7.851540 6.030090
rfoot 21.711100 -13.887400
lradius 60.160500
lthumb 30.431400 722.203979
rradius 55.167599
lwrist 34.991600
rhand -18.893900 3.032530
rhumerus -301.519989 -10.472300 339.691986
lowerneck -7.802890 1.995090 11.382100
lhand 5.064370 334.695007
ltibia 22.922001
head 4.419870 1.097610 -4.071690
rwrist 311.911011
lfingers 7.125020
rtoes -2.753190
lowerback 5.585790 5.351350 1.760900
rfingers 7.125020
lclavicle -0.000000 -0.000000
upperneck 9.818780 2.192640 -7.572330
rfemur 3.552320 -23.042500 10.867000
thorax 3.153690 4.163920 5.046740
rclavicle -0.000000 -0.000000
rtibia 61.744099
lfoot -142.839005 113.045998
lhumerus 59.472500 372.964996 -336.759003
rthumb 7.407570 -386.817993
root 5.878380 19.760099 -1.741180 -112.404999 21.064501 -147.910995
ltoes 26.996401
lfemur -130.479996 27.017300 251.796997
141
upperback 5.693910 9.187290 1.527250
rfoot 21.739799 -13.268800
lradius 60.742298
lthumb 29.853500 723.809998
rradius 55.452999
lwrist 34.074600
rhand -15.483000 5.103150
rhumerus -304.627991 -10.596200 334.292999
lowerneck -7.700820 1.665330 16.687901
lhand 4.458680 336.196014
ltibia 33.174198
head 4.843030 0.964879 -4.508690
rwrist 311.128998
lfingers 7.125020
rtoes 0.850672
lowerback 8.111700 6.173360 5.780210
rfingers 7.125020
lclavicle 0.000000 -0.000000
upperneck 11.445900 1.095620 -6.000430
rfemur 3.720740 -17.275801 12.686500
thorax 2.053070 4.967900 -2.114200
rclavicle 0.000000 -0.000000
rtibia 61.510300
lfoot -140.134995 142.000000
lhumerus 58.780499 371.562988 -347.088013
rthumb 10.698900 -384.604004
root 6.502930 19.623501 -1.777590 -122.544998 11.652900 -148.197998
ltoes 52.714401
lfemur -116.388000 47.675098 283.886993
142
upperback 5.350000 8.057970 0.790447
rfoot 13.697500 -15.520300
lradius 60.093498
lthumb 28.462799 725.734009
rradius 54.608601
lwrist 32.807899
rhand -2.028860 4.351510
rhumerus -303.730988 -14.497000 332.661011
lowerneck -8.792060 1.224480 15.639100
lhand 3.002330 337.878998
ltibia 32.147999
head 4.920700 0.244557 -4.263710
rwrist 309.742004
lfingers 7.125020
rtoes -37.588299
lowerback 8.337470 5.055750 9.033020
rfingers 7.125020
lclavicle -0.000000 -0.000000
upperneck 11.486100 -0.015345 -5.488140
rfemur 4.660420 -18.128401 15.420600
thorax 2.054200 4.550920 -4.615490
rclavicle -0.000000 -0.000000
rtibia 59.089001
lfoot -194.130005 216.641006
lhumerus 62.760700 375.066986 -344.200989
rthumb 23.645700 -384.213989
root 7.380170 19.450399 -1.560950 -130.604996 -4.781460 -155.876007
ltoes 7.414610
lfemur -72.782402 10.338100 359.450012
143
upperback 5.719060 9.031590 0.686607
rfoot 13.792800 -16.305901
lradius 60.783298
lthumb 29.470200 723.987976
rradius 53.930302
lwrist 33.710400
rhand -19.602800 5.577480
rhumerus -302.265015 -14.746300 331.545013
lowerneck -8.957160 0.952767 16.483801
lhand 4.057120 336.306000
ltibia 24.678801
head 5.389730 0.078837 -4.764760
rwrist 310.734009
lfingers 7.125020
rtoes -35.965599
lowerback 7.452320 6.993210 7.196650
rfingers 7.125020
lclavicle 0.000000 0.000000
upperneck 13.061600 -0.416289 -6.441380
rfemur 2.509190 -17.410101 17.731501
thorax 2.862540 4.483970 -3.613620
rclavicle 0.000000 0.000000
rtibia 55.353001
lfoot -186.673004 144.419006
lhumerus 64.497200 376.380005 -341.013000
rthumb 6.723240 -384.295990
root 8.156080 19.751101 -1.391500 -135.018997 -17.145700 -156.423004
ltoes 16.290899
lfemur -86.445900 29.442801 315.237000
